<mxfile host="app.diagrams.net" modified="2023-09-10T21:31:39.345Z" agent="Mozilla/5.0 (Windows NT 10.0; Win64; x64) AppleWebKit/537.36 (KHTML, like Gecko) Chrome/114.0.0.0 YaBrowser/23.7.4.971 Yowser/2.5 Safari/537.36" etag="e25jfMAkhPS_FLIjXdaF" version="21.7.4" type="device">
  <diagram name="Страница — 1" id="5PmundPu9_5DxC-cmLuP">
    <mxGraphModel dx="807" dy="777" grid="1" gridSize="10" guides="1" tooltips="1" connect="1" arrows="1" fold="1" page="1" pageScale="1" pageWidth="827" pageHeight="1169" math="0" shadow="0">
      <root>
        <mxCell id="0" />
        <mxCell id="1" parent="0" />
        <mxCell id="rfkcQuI-JUuW1YwND3BE-13" style="rounded=0;orthogonalLoop=1;jettySize=auto;html=1;" edge="1" parent="1" source="rfkcQuI-JUuW1YwND3BE-1" target="rfkcQuI-JUuW1YwND3BE-12">
          <mxGeometry relative="1" as="geometry" />
        </mxCell>
        <mxCell id="rfkcQuI-JUuW1YwND3BE-1" value="Disk" style="shape=umlActor;verticalLabelPosition=bottom;verticalAlign=top;html=1;" vertex="1" parent="1">
          <mxGeometry x="470" y="120" width="30" height="60" as="geometry" />
        </mxCell>
        <mxCell id="rfkcQuI-JUuW1YwND3BE-2" value="File" style="shape=umlActor;verticalLabelPosition=bottom;verticalAlign=top;html=1;" vertex="1" parent="1">
          <mxGeometry x="80" y="160" width="30" height="60" as="geometry" />
        </mxCell>
        <mxCell id="rfkcQuI-JUuW1YwND3BE-16" style="rounded=0;orthogonalLoop=1;jettySize=auto;html=1;" edge="1" parent="1" source="rfkcQuI-JUuW1YwND3BE-3" target="rfkcQuI-JUuW1YwND3BE-15">
          <mxGeometry relative="1" as="geometry" />
        </mxCell>
        <mxCell id="rfkcQuI-JUuW1YwND3BE-3" value="Verification" style="shape=umlActor;verticalLabelPosition=bottom;verticalAlign=top;html=1;" vertex="1" parent="1">
          <mxGeometry x="384" y="320" width="30" height="60" as="geometry" />
        </mxCell>
        <mxCell id="rfkcQuI-JUuW1YwND3BE-14" style="rounded=0;orthogonalLoop=1;jettySize=auto;html=1;" edge="1" parent="1" source="rfkcQuI-JUuW1YwND3BE-12" target="rfkcQuI-JUuW1YwND3BE-3">
          <mxGeometry relative="1" as="geometry" />
        </mxCell>
        <mxCell id="rfkcQuI-JUuW1YwND3BE-12" value="Check Free Space" style="ellipse;whiteSpace=wrap;html=1;" vertex="1" parent="1">
          <mxGeometry x="350" y="200" width="80" height="40" as="geometry" />
        </mxCell>
        <mxCell id="rfkcQuI-JUuW1YwND3BE-15" value="Failed for Free Space" style="ellipse;whiteSpace=wrap;html=1;" vertex="1" parent="1">
          <mxGeometry x="270" y="250" width="80" height="40" as="geometry" />
        </mxCell>
      </root>
    </mxGraphModel>
  </diagram>
</mxfile>
